<svg width="94" height="94" viewBox="0 0 94 94" fill="none" xmlns="http://www.w3.org/2000/svg">
<g clip-path="url(#clip0_1_3)">
<circle cx="47" cy="47" r="46" fill="white" stroke="#3DDC84" stroke-width="2"/>
<path d="M20.3767 43.2449V46.7073C21.3027 46.7073 22.1626 47.0735 22.8075 47.7227C24.1469 49.071 24.1469 51.2683 22.8075 52.6333C22.361 53.0828 20.4759 54.531 18.0947 55.8959C14.9032 57.727 13.1504 58.0932 12.4393 58.1598C12.5055 57.3608 12.9354 55.7295 14.341 53.116C15.8127 50.3861 17.4828 48.1888 17.9293 47.7393C18.5742 47.0901 19.4506 46.7239 20.3601 46.7239L20.3767 43.2449C18.6073 43.2449 16.8545 43.9274 15.515 45.2757C13.7291 47.0568 6.60206 57.5273 9.8266 60.7733C10.4054 61.3559 11.2322 61.6056 12.1913 61.6056C16.5403 61.6056 23.7831 56.5285 25.2383 55.0636C27.9171 52.367 27.9171 47.9724 25.2383 45.2757C23.8988 43.9107 22.1295 43.2449 20.3767 43.2449Z" fill="#073042"/>
<path d="M50.2907 70.494C48.9513 69.1456 47.1819 68.4631 45.4291 68.4631V71.9255C46.3551 71.9255 47.215 72.2918 47.8599 72.941C48.5048 73.5902 48.8686 74.4724 48.8686 75.3879C48.8686 76.3201 48.5048 77.1857 47.8599 77.8349C47.4135 78.2844 45.5283 79.7326 43.1471 81.0976C39.9557 82.9287 38.2028 83.2949 37.4918 83.3615C37.5579 82.5624 37.9879 80.9311 39.3934 78.3177C40.8652 75.5877 42.5353 73.3904 42.9818 72.941C43.6267 72.2918 44.5031 71.9255 45.4126 71.9255V68.4631C43.6432 68.4631 41.8904 69.1456 40.551 70.494C38.7651 72.2918 31.638 82.7455 34.8791 86.0082C35.4578 86.5908 36.2847 86.8405 37.2437 86.8405C41.5927 86.8405 48.8356 81.7634 50.2907 80.2986C52.9861 77.5852 52.9861 73.1906 50.2907 70.494Z" fill="#073042"/>
<path d="M72.6473 34.5231C72.0685 33.9405 72.0685 32.9917 72.6473 32.4257C73.226 31.8431 74.1686 31.8431 74.7308 32.4257C75.3096 33.0083 75.3096 33.9572 74.7308 34.5231C74.1686 35.1057 73.226 35.1057 72.6473 34.5231ZM61.1051 22.9041C60.5263 22.3215 60.5263 21.3727 61.1051 20.8067C61.6838 20.2241 62.6264 20.2241 63.1886 20.8067C63.7674 21.3893 63.7674 22.3381 63.1886 22.9041C62.6099 23.4867 61.6838 23.4867 61.1051 22.9041ZM56.7395 64.17L75.8387 44.9436C79.7743 40.2661 80.9484 34.1403 79.3113 28.5638L85.0163 27.0324C85.347 26.9491 85.5454 26.5996 85.4462 26.2666C85.3635 25.9337 85.0163 25.734 84.6856 25.8338L78.9145 27.3986C78.038 25.0348 76.6325 22.7876 74.6978 20.84C72.763 18.8924 70.5307 17.4775 68.1825 16.5952L69.7369 10.7857C69.8196 10.4528 69.6377 10.1199 69.307 10.02C68.9763 9.93675 68.6455 10.1199 68.5463 10.4528L67.025 16.1957C61.4854 14.5477 55.4001 15.7296 50.7535 19.6914L31.6542 38.9177L56.7395 64.17Z" fill="#3DDC84"/>
<path d="M37.7891 45.0927L52.1921 30.5938C54.8213 27.9471 54.8213 23.6191 52.1921 20.9724C49.5628 18.3256 45.2634 18.3256 42.6342 20.9724L38.8144 24.8176L28.2313 35.4712" fill="#00B975"/>
<path d="M59.964 67.4149L74.3669 52.9161C76.9962 50.2694 76.9962 45.9414 74.3669 43.2946C71.7377 40.6479 67.4383 40.6479 64.8091 43.2946L60.9892 47.1399L50.4061 57.7934" fill="#00B975"/>
<path d="M50.7865 29.18C53.4157 26.5333 53.4157 22.2053 50.7865 19.5585C48.1572 16.9118 43.8579 16.9118 41.2286 19.5585L37.4088 23.4038L26.4123 34.4735L24.4114 36.4877C23.9484 36.9538 23.9484 37.7362 24.4114 38.2022L32.2495 46.0925C32.7125 46.5586 33.4897 46.5586 33.9693 46.0925L35.9701 44.0783L50.7865 29.18Z" fill="#4285F4"/>
<path d="M75.839 54.3998C78.4682 51.753 78.4682 47.425 75.839 44.7783C73.2097 42.1315 68.9103 42.1315 66.2811 44.7783L62.4613 48.6235L51.4648 59.6933L49.4639 61.7074C49.0009 62.1735 49.0009 62.9559 49.4639 63.422L57.302 71.3123C57.765 71.7784 58.5422 71.7784 59.0218 71.3123L61.0226 69.2981L75.839 54.3998Z" fill="#4285F4"/>
<path d="M86.1677 84.1047C87.1553 85.0101 86.515 86.6562 85.1752 86.6562H55.8125C55.0013 86.6562 54.3438 85.9985 54.3438 85.1875V55.8125C54.3438 55.0013 55.0013 54.3438 55.8125 54.3438H85.1752C86.515 54.3438 87.1553 55.99 86.1677 56.8952L72.5073 69.4173C71.8723 69.9994 71.8723 71.0006 72.5073 71.5827L86.1677 84.1047Z" fill="#EEE0FF"/>
<path fill-rule="evenodd" clip-rule="evenodd" d="M52.875 55.8125C52.875 54.1902 54.1901 52.875 55.8125 52.875H85.1752C87.8545 52.875 89.1352 56.1676 87.1603 57.9779L73.4998 70.5L87.1603 83.022C89.1352 84.8324 87.8545 88.125 85.1752 88.125H55.8125C54.1901 88.125 52.875 86.8099 52.875 85.1875V55.8125ZM85.1752 55.8125H55.8125V85.1875H85.1752L71.5148 72.6654C70.2448 71.5012 70.2447 69.4988 71.5148 68.3346L85.1752 55.8125Z" fill="#955AE0"/>
</g>
<defs>
<clipPath id="clip0_1_3">
<rect width="94" height="94" fill="white"/>
</clipPath>
</defs>
</svg>
